<?xml version="1.0" encoding="UTF-8" standalone="no"?><svg xmlns="http://www.w3.org/2000/svg" xmlns:xlink="http://www.w3.org/1999/xlink" contentScriptType="application/ecmascript" contentStyleType="text/css" height="692px" preserveAspectRatio="none" style="width:986px;height:692px;" version="1.1" viewBox="0 0 986 692" width="986px" zoomAndPan="magnify"><defs><filter height="300%" id="fshn6kd4axmb8" width="300%" x="-1" y="-1"><feGaussianBlur result="blurOut" stdDeviation="2.0"/><feColorMatrix in="blurOut" result="blurOut2" type="matrix" values="0 0 0 0 0 0 0 0 0 0 0 0 0 0 0 0 0 0 .4 0"/><feOffset dx="4.0" dy="4.0" in="blurOut2" result="blurOut3"/><feBlend in="SourceGraphic" in2="blurOut3" mode="normal"/></filter></defs><g><!--class Calendar--><polygon fill="#FEFECE" filter="url(#fshn6kd4axmb8)" points="464,50.5,464,50.1524,473.8621,49.7685,483.7241,49.9673,493.5862,50.5912,503.4483,50.2547,513.3103,51.1462,523.1724,50.1391,533.0345,49.9039,542.8966,50.0797,552.7586,50.5843,562.6207,50.4679,572.4828,50.9408,582.3448,51.2096,592.2069,51.0348,602.069,50.2213,611.931,50.2246,621.7931,50.3556,631.6552,50.6235,641.5172,50.7423,651.3793,50.8883,661.2414,50.8834,671.1034,50.6397,680.9655,50.7912,690.8276,51.1684,700.6897,50.0703,710.5517,49.8206,720.4138,50.671,730.2759,50.0957,740.1379,50.2238,750,50.5,750.2206,50.5,750.2784,60.1016,749.7499,69.7031,750.1426,79.3047,749.4712,88.9063,749.5443,98.5078,749.4935,108.1094,750.3287,117.7109,750.4459,127.3125,750,136.9141,750,136.8016,740.1379,137.5174,730.2759,136.2804,720.4138,136.6787,710.5517,136.6978,700.6897,137.5877,690.8276,136.3818,680.9655,137.1048,671.1034,137.2799,661.2414,136.9866,651.3793,136.2617,641.5172,137.2074,631.6552,136.5241,621.7931,136.5111,611.931,137.244,602.069,137.1939,592.2069,137.0421,582.3448,136.6989,572.4828,136.3224,562.6207,137.0407,552.7586,136.7988,542.8966,136.5249,533.0345,136.295,523.1724,136.4853,513.3103,136.1926,503.4483,136.9303,493.5862,137.0648,483.7241,137.0771,473.8621,136.394,464,136.9141,463.8938,136.9141,463.3414,127.3125,463.4097,117.7109,464.1978,108.1094,463.2782,98.5078,463.5064,88.9063,463.5962,79.3047,463.6542,69.7031,464.5739,60.1016,464,50.5" style="stroke: #A80036; stroke-width: 1.5;"/><polygon fill="#FFFFFF" points="585.2609,69.4234,584.3738,71.471,583.0952,73.721,580.24,75.619,578.4148,76.7121,575.2591,78.1551,572.2199,76.8801,569.0545,75.5027,566.1715,73.6492,564.5657,71.5261,563.9009,68.4416,563.5583,65.4832,564.7058,63.7368,565.98,60.773,567.472,58.2967,569.1269,56.5951,571.7651,56.4927,575.1789,55.4192,578.0902,56.6386,581.1667,57.4562,583.7005,59.8485,584.5622,63.1479,585.1791,65.8581,585.1197,68.6432" style="stroke: #A80036; stroke-width: 1.0;"/><path d="M577.7188,72.1406 Q577.1406,72.4375 576.5,72.5859 Q575.8594,72.7344 575.1563,72.7344 Q572.6563,72.7344 571.3359,71.0859 Q570.0156,69.4375 570.0156,66.3125 Q570.0156,63.1875 571.3359,61.5313 Q572.6563,59.875 575.1563,59.875 Q575.8594,59.875 576.5078,60.0313 Q577.1563,60.1875 577.7188,60.4844 L577.7188,63.2031 Q577.0938,62.625 576.5,62.3516 Q575.9063,62.0781 575.2813,62.0781 Q573.9375,62.0781 573.25,63.1484 Q572.5625,64.2188 572.5625,66.3125 Q572.5625,68.4063 573.25,69.4766 Q573.9375,70.5469 575.2813,70.5469 Q575.9063,70.5469 576.5,70.2734 Q577.0938,70 577.7188,69.4219 L577.7188,72.1406 Z "/><text fill="#000000" font-family="sans-serif" font-size="12" lengthAdjust="spacingAndGlyphs" textLength="56" x="595.25" y="70.6543">Calendar</text><path d="M465,82.5 L465,82.111 L475.1429,82.8615 L485.2857,81.5347 L495.4286,83.2965 L505.5714,83.4316 L515.7143,82.0365 L525.8571,82.9679 L536,82.8975 L546.1429,82.3244 L556.2857,83.2158 L566.4286,83.3561 L576.5714,82.8729 L586.7143,81.598 L596.8571,81.8519 L607,82.4149 L617.1429,82.7511 L627.2857,83.227 L637.4286,82.4388 L647.5714,83.2033 L657.7143,82.5058 L667.8571,82.8141 L678,82.1299 L688.1429,83.3623 L698.2857,82.884 L708.4286,81.719 L718.5714,82.6059 L728.7143,81.601 L738.8571,82.1139 L749,82.5 " fill="#FEFECE" style="stroke: #A80036; stroke-width: 1.5;"/><text fill="#000000" font-family="sans-serif" font-size="11" lengthAdjust="spacingAndGlyphs" textLength="65" x="470" y="96.7104">Календарь</text><path d="M465,103.3047 L465,102.7407 L475.1429,103.7533 L485.2857,104.0256 L495.4286,102.5962 L505.5714,102.6362 L515.7143,104.1496 L525.8571,103.2748 L536,102.3413 L546.1429,104.1257 L556.2857,104.2699 L566.4286,102.7581 L576.5714,103.5496 L586.7143,103.7715 L596.8571,103.1124 L607,103.0012 L617.1429,103.2361 L627.2857,103.6283 L637.4286,102.9962 L647.5714,102.5795 L657.7143,103.5704 L667.8571,102.4379 L678,103.2097 L688.1429,102.9684 L698.2857,103.254 L708.4286,103.9954 L718.5714,102.586 L728.7143,102.4595 L738.8571,103.3669 L749,103.3047 " fill="#FEFECE" style="stroke: #A80036; stroke-width: 1.0;"/><text fill="#000000" font-family="sans-serif" font-size="11" lengthAdjust="spacingAndGlyphs" textLength="35" x="470" y="117.5151">owner</text><text fill="#000000" font-family="sans-serif" font-size="11" lengthAdjust="spacingAndGlyphs" textLength="15" x="598" y="117.5151">[1]</text><text fill="#000000" font-family="sans-serif" font-size="11" lengthAdjust="spacingAndGlyphs" textLength="78" x="662" y="117.5151">CalendarUser</text><text fill="#000000" font-family="sans-serif" font-size="11" lengthAdjust="spacingAndGlyphs" textLength="38" x="470" y="130.3198">events</text><text fill="#000000" font-family="sans-serif" font-size="11" lengthAdjust="spacingAndGlyphs" textLength="14" x="598" y="130.3198">[*]</text><text fill="#000000" font-family="sans-serif" font-size="11" lengthAdjust="spacingAndGlyphs" textLength="82" x="662" y="130.3198">CalendarEvent</text><!--class CalendarEvent--><polygon fill="#FEFECE" filter="url(#fshn6kd4axmb8)" points="466,286,466,285.8926,476.0714,285.7556,486.1429,286.6017,496.2143,285.5729,506.2857,285.8376,516.3571,285.9582,526.4286,286.3213,536.5,286.6904,546.5714,286.3358,556.6429,286.4836,566.7143,286.1586,576.7857,286.2722,586.8571,286.4189,596.9286,285.3294,607,285.4881,617.0714,286.0305,627.1429,286.2264,637.2143,285.3035,647.2857,285.556,657.3571,286.6337,667.4286,285.4263,677.5,286.3214,687.5714,285.7523,697.6429,285.4839,707.7143,285.9377,717.7857,286.6734,727.8571,285.4419,737.9286,285.8468,748,286,747.685,286,748.6099,295.9396,748.5392,305.8791,748.0139,315.8187,747.4777,325.7582,748.2437,335.6978,748.1,345.6373,748.1159,355.5769,748.5547,365.5164,747.6226,375.456,748.1283,385.3956,747.6007,395.3351,748.3526,405.2747,747.8819,415.2142,747.5417,425.1538,748.2331,435.0933,747.6602,445.0329,748.6475,454.9725,748.3157,464.912,748,474.8516,748,474.1264,737.9286,475.3472,727.8571,474.1753,717.7857,474.5857,707.7143,474.1079,697.6429,474.6542,687.5714,474.9163,677.5,474.2551,667.4286,475.3056,657.3571,475.2476,647.2857,474.453,637.2143,474.1033,627.1429,475.2009,617.0714,474.8479,607,475.016,596.9286,474.471,586.8571,474.8073,576.7857,475.54,566.7143,475.3748,556.6429,474.622,546.5714,474.816,536.5,475.0571,526.4286,475.4899,516.3571,475.5457,506.2857,475.5299,496.2143,474.4375,486.1429,474.4571,476.0714,474.2941,466,474.8516,465.6761,474.8516,465.4778,464.912,465.9585,454.9725,466.4517,445.0329,466.0692,435.0933,465.6683,425.1538,465.4822,415.2142,465.8215,405.2747,465.5961,395.3351,465.7951,385.3956,465.9809,375.456,466.3904,365.5164,466.6254,355.5769,466.159,345.6373,466.443,335.6978,466.1246,325.7582,465.426,315.8187,466.5916,305.8791,466.7362,295.9396,466,286" style="stroke: #A80036; stroke-width: 1.5;"/><polygon fill="#FFFFFF" points="568.6146,304.5445,567.4738,307.4236,565.6343,309.357,563.1157,310.763,561.7005,312.7822,559.0841,313.3056,556.8924,313.5064,554.6676,313.3233,552.4333,311.5625,550.1882,309.8508,548.2358,307.6291,546.3675,305.6339,546.085,302.396,545.9759,299.5564,547.6939,297.7075,548.9263,294.8816,550.8706,293.5642,553.6409,291.8083,556.4523,290.5204,559.2525,290.7417,562.2113,292.8255,564.382,293.0191,565.7336,294.6821,567.5181,297.8764,568.2053,299.9834,568.3543,303.362" style="stroke: #A80036; stroke-width: 1.0;"/><path d="M560.2188,307.6406 Q559.6406,307.9375 559,308.0859 Q558.3594,308.2344 557.6563,308.2344 Q555.1563,308.2344 553.8359,306.5859 Q552.5156,304.9375 552.5156,301.8125 Q552.5156,298.6875 553.8359,297.0313 Q555.1563,295.375 557.6563,295.375 Q558.3594,295.375 559.0078,295.5313 Q559.6563,295.6875 560.2188,295.9844 L560.2188,298.7031 Q559.5938,298.125 559,297.8516 Q558.4063,297.5781 557.7813,297.5781 Q556.4375,297.5781 555.75,298.6484 Q555.0625,299.7188 555.0625,301.8125 Q555.0625,303.9063 555.75,304.9766 Q556.4375,306.0469 557.7813,306.0469 Q558.4063,306.0469 559,305.7734 Q559.5938,305.5 560.2188,304.9219 L560.2188,307.6406 Z "/><text fill="#000000" font-family="sans-serif" font-size="12" lengthAdjust="spacingAndGlyphs" textLength="91" x="577.75" y="306.1543">CalendarEvent</text><path d="M467,318 L467,318.9286 L477,317.5414 L487,318.4321 L497,317.8482 L507,318.7547 L517,317.2611 L527,317.0875 L537,317.3583 L547,317.1446 L557,317.6216 L567,318.0812 L577,317.4356 L587,318.6556 L597,317.8237 L607,318.0846 L617,318.6699 L627,317.4234 L637,318.1449 L647,318.0908 L657,317.561 L667,318.4163 L677,317.2808 L687,317.3423 L697,318.1723 L707,318.1662 L717,318.7353 L727,318.4209 L737,317.9409 L747,318 " fill="#FEFECE" style="stroke: #A80036; stroke-width: 1.5;"/><text fill="#000000" font-family="sans-serif" font-size="11" lengthAdjust="spacingAndGlyphs" textLength="120" x="472" y="332.2104">Событие календаря</text><path d="M467,338.8047 L467,339.4099 L477,339.0451 L487,338.6944 L497,339.3958 L507,338.3211 L517,338.6629 L527,338.0218 L537,338.7943 L547,338.2166 L557,338.8281 L567,339.2988 L577,339.4127 L587,338.2091 L597,339.1333 L607,339.4757 L617,337.8216 L627,338.624 L637,338.1453 L647,339.4996 L657,339.3498 L667,339.7272 L677,337.957 L687,338.8264 L697,338.6708 L707,337.9994 L717,338.5387 L727,339.3089 L737,338.6656 L747,338.8047 " fill="#FEFECE" style="stroke: #A80036; stroke-width: 1.0;"/><text fill="#000000" font-family="sans-serif" font-size="11" lengthAdjust="spacingAndGlyphs" textLength="43" x="472" y="353.0151">created</text><text fill="#000000" font-family="sans-serif" font-size="11" lengthAdjust="spacingAndGlyphs" textLength="15" x="600" y="353.0151">[1]</text><text fill="#000000" font-family="sans-serif" font-size="11" lengthAdjust="spacingAndGlyphs" textLength="54" x="664" y="353.0151">DateTime</text><text fill="#000000" font-family="sans-serif" font-size="11" lengthAdjust="spacingAndGlyphs" textLength="85" x="472" y="365.8198">dateTimeBegin</text><text fill="#000000" font-family="sans-serif" font-size="11" lengthAdjust="spacingAndGlyphs" textLength="15" x="568" y="365.8198">[1]</text><text fill="#000000" font-family="sans-serif" font-size="11" lengthAdjust="spacingAndGlyphs" textLength="54" x="632" y="365.8198">DateTime</text><text fill="#000000" font-family="sans-serif" font-size="11" lengthAdjust="spacingAndGlyphs" textLength="74" x="472" y="378.6245">dateTimeEnd</text><text fill="#000000" font-family="sans-serif" font-size="11" lengthAdjust="spacingAndGlyphs" textLength="15" x="600" y="378.6245">[1]</text><text fill="#000000" font-family="sans-serif" font-size="11" lengthAdjust="spacingAndGlyphs" textLength="54" x="664" y="378.6245">DateTime</text><text fill="#000000" font-family="sans-serif" font-size="11" lengthAdjust="spacingAndGlyphs" textLength="37" x="472" y="391.4292">parent</text><text fill="#000000" font-family="sans-serif" font-size="11" lengthAdjust="spacingAndGlyphs" textLength="30" x="600" y="391.4292">[0..1]</text><text fill="#000000" font-family="sans-serif" font-size="11" lengthAdjust="spacingAndGlyphs" textLength="82" x="632" y="391.4292">CalendarEvent</text><text fill="#000000" font-family="sans-serif" font-size="11" lengthAdjust="spacingAndGlyphs" textLength="32" x="472" y="404.2339">name</text><text fill="#000000" font-family="sans-serif" font-size="11" lengthAdjust="spacingAndGlyphs" textLength="15" x="600" y="404.2339">[1]</text><text fill="#000000" font-family="sans-serif" font-size="11" lengthAdjust="spacingAndGlyphs" textLength="34" x="664" y="404.2339">String</text><text fill="#000000" font-family="sans-serif" font-size="11" lengthAdjust="spacingAndGlyphs" textLength="63" x="472" y="417.0386">description</text><text fill="#000000" font-family="sans-serif" font-size="11" lengthAdjust="spacingAndGlyphs" textLength="30" x="568" y="417.0386">[0..1]</text><text fill="#000000" font-family="sans-serif" font-size="11" lengthAdjust="spacingAndGlyphs" textLength="34" x="600" y="417.0386">String</text><text fill="#000000" font-family="sans-serif" font-size="11" lengthAdjust="spacingAndGlyphs" textLength="67" x="472" y="429.8433">participants</text><text fill="#000000" font-family="sans-serif" font-size="11" lengthAdjust="spacingAndGlyphs" textLength="14" x="568" y="429.8433">[*]</text><text fill="#000000" font-family="sans-serif" font-size="11" lengthAdjust="spacingAndGlyphs" textLength="78" x="632" y="429.8433">CalendarUser</text><text fill="#000000" font-family="sans-serif" font-size="11" lengthAdjust="spacingAndGlyphs" textLength="52" x="472" y="442.6479">watchers</text><text fill="#000000" font-family="sans-serif" font-size="11" lengthAdjust="spacingAndGlyphs" textLength="14" x="568" y="442.6479">[*]</text><text fill="#000000" font-family="sans-serif" font-size="11" lengthAdjust="spacingAndGlyphs" textLength="78" x="632" y="442.6479">CalendarUser</text><text fill="#000000" font-family="sans-serif" font-size="11" lengthAdjust="spacingAndGlyphs" textLength="71" x="472" y="455.4526">attachments</text><text fill="#000000" font-family="sans-serif" font-size="11" lengthAdjust="spacingAndGlyphs" textLength="14" x="600" y="455.4526">[*]</text><text fill="#000000" font-family="sans-serif" font-size="11" lengthAdjust="spacingAndGlyphs" textLength="78" x="664" y="455.4526">FileDescriptor</text><text fill="#000000" font-family="sans-serif" font-size="11" lengthAdjust="spacingAndGlyphs" textLength="18" x="472" y="468.2573">tag</text><text fill="#000000" font-family="sans-serif" font-size="11" lengthAdjust="spacingAndGlyphs" textLength="30" x="600" y="468.2573">[0..1]</text><text fill="#000000" font-family="sans-serif" font-size="11" lengthAdjust="spacingAndGlyphs" textLength="52" x="632" y="468.2573">EventTag</text><!--class EventTag--><polygon fill="#FEFECE" filter="url(#fshn6kd4axmb8)" points="225,343.5,225,342.8132,234.8095,343.0818,244.619,343.9698,254.4286,343.2073,264.2381,342.8296,274.0476,342.9587,283.8571,343.0919,293.6667,343.3687,303.4762,343.8927,313.2857,343.2396,323.0952,343.1488,332.9048,343.8149,342.7143,344.0006,352.5238,343.1492,362.3333,342.8857,372.1429,343.6786,381.9524,342.8901,391.7619,344.1536,401.5714,343.1059,411.381,342.9228,421.1905,343.6632,431,343.5,431.1757,343.5,430.3932,354.0156,431.4245,364.5313,431.4312,375.0469,431.3111,385.5625,431.556,396.0781,431.231,406.5938,431,417.1094,431,416.8376,421.1905,416.9082,411.381,416.3946,401.5714,416.6234,391.7619,417.5506,381.9524,416.7091,372.1429,416.9727,362.3333,417.3716,352.5238,416.4438,342.7143,417.5887,332.9048,416.8059,323.0952,416.5685,313.2857,417.5064,303.4762,417.1104,293.6667,416.5507,283.8571,416.5272,274.0476,416.8385,264.2381,416.895,254.4286,416.6965,244.619,417.6665,234.8095,416.5982,225,417.1094,224.8046,417.1094,225.5152,406.5938,225.7288,396.0781,225.0652,385.5625,225.336,375.0469,225.2977,364.5313,225.234,354.0156,225,343.5" style="stroke: #A80036; stroke-width: 1.5;"/><polygon fill="#FFFFFF" points="305.6485,362.96,304.7095,365.3668,301.6766,367.7267,300.2163,369.1001,298.4414,370.0249,296.0706,370.1511,293.0664,370.0412,290.7268,369.5568,288.5403,368.1175,286.4806,366.2095,284.7167,363.9775,284.6234,361.7811,284.0696,359.0803,283.8935,355.3875,286.2529,353.3795,288.184,350.8548,290.7445,349.3715,294.337,348.1303,296.763,348.0393,298.6814,349.2355,301.0036,351.2583,303.2836,352.5524,305.1431,354.2588,306.0513,356.9336,305.2883,359.6309" style="stroke: #A80036; stroke-width: 1.0;"/><path d="M297.7188,365.1406 Q297.1406,365.4375 296.5,365.5859 Q295.8594,365.7344 295.1563,365.7344 Q292.6563,365.7344 291.3359,364.0859 Q290.0156,362.4375 290.0156,359.3125 Q290.0156,356.1875 291.3359,354.5313 Q292.6563,352.875 295.1563,352.875 Q295.8594,352.875 296.5078,353.0313 Q297.1563,353.1875 297.7188,353.4844 L297.7188,356.2031 Q297.0938,355.625 296.5,355.3516 Q295.9063,355.0781 295.2813,355.0781 Q293.9375,355.0781 293.25,356.1484 Q292.5625,357.2188 292.5625,359.3125 Q292.5625,361.4063 293.25,362.4766 Q293.9375,363.5469 295.2813,363.5469 Q295.9063,363.5469 296.5,363.2734 Q297.0938,363 297.7188,362.4219 L297.7188,365.1406 Z "/><text fill="#000000" font-family="sans-serif" font-size="12" lengthAdjust="spacingAndGlyphs" textLength="58" x="315.25" y="363.6543">EventTag</text><path d="M226,375.5 L226,374.6447 L236.2,376.0365 L246.4,375.3959 L256.6,375.5111 L266.8,376.2144 L277,375.8395 L287.2,376.2188 L297.4,375.0918 L307.6,374.6812 L317.8,375.004 L328,376.141 L338.2,375.7905 L348.4,375.0452 L358.6,376.469 L368.8,376.3809 L379,376.0433 L389.2,376.1251 L399.4,376.0716 L409.6,375.7533 L419.8,375.5721 L430,375.5 " fill="#FEFECE" style="stroke: #A80036; stroke-width: 1.5;"/><text fill="#000000" font-family="sans-serif" font-size="11" lengthAdjust="spacingAndGlyphs" textLength="30" x="231" y="389.7104">value</text><text fill="#000000" font-family="sans-serif" font-size="11" lengthAdjust="spacingAndGlyphs" textLength="15" x="327" y="389.7104">[1]</text><text fill="#000000" font-family="sans-serif" font-size="11" lengthAdjust="spacingAndGlyphs" textLength="34" x="391" y="389.7104">String</text><text fill="#000000" font-family="sans-serif" font-size="11" lengthAdjust="spacingAndGlyphs" textLength="28" x="231" y="402.5151">color</text><text fill="#000000" font-family="sans-serif" font-size="11" lengthAdjust="spacingAndGlyphs" textLength="15" x="327" y="402.5151">[1]</text><text fill="#000000" font-family="sans-serif" font-size="11" lengthAdjust="spacingAndGlyphs" textLength="34" x="391" y="402.5151">String</text><path d="M226,409.1094 L226,408.1715 L236.2,408.5569 L246.4,408.7715 L256.6,410.0652 L266.8,408.2616 L277,409.3275 L287.2,409.7499 L297.4,409.1818 L307.6,408.9277 L317.8,409.8172 L328,408.2229 L338.2,409.221 L348.4,408.9822 L358.6,408.4378 L368.8,408.4817 L379,408.5716 L389.2,409.115 L399.4,408.6992 L409.6,408.605 L419.8,409.4349 L430,409.1094 " fill="#FEFECE" style="stroke: #A80036; stroke-width: 1.5;"/><!--class event_to_user--><polygon fill="#FEFECE" filter="url(#fshn6kd4axmb8)" points="785,8,785,8.4824,795,7.5972,805,8.104,815,7.5409,825,8.739,835,8.3893,845,7.802,855,8.2278,865,8.0833,875,7.9338,885,8.5409,895,8.0768,905,8.0607,915,7.505,925,7.5251,935,8.3154,945,7.5685,955,7.3617,965,8.213,975,8,974.3998,8,974.4833,18.0731,975.5036,28.1461,974.62,38.2192,974.3678,48.2923,975.027,58.3653,974.8547,68.4384,974.4648,78.5115,974.9567,88.5846,975.1841,98.6576,974.7392,108.7307,974.8895,118.8038,974.5817,128.8768,974.6454,138.9499,974.8367,149.023,975.6176,159.096,975.132,169.1691,975,179.2422,975,179.7363,965,179.5745,955,179.6273,945,178.5971,935,179.9094,925,178.9447,915,179.0168,905,179.1113,895,179.368,885,178.7561,875,179.4466,865,178.8093,855,179.3816,845,178.9845,835,178.5202,825,179.5853,815,178.8865,805,179.2059,795,178.7204,785,179.2422,785.2077,179.2422,784.2681,169.1691,785.3051,159.096,784.798,149.023,784.9334,138.9499,784.8193,128.8768,784.2909,118.8038,784.3371,108.7307,784.9083,98.6576,784.8314,88.5846,785.1669,78.5115,784.6561,68.4384,785.3609,58.3653,785.6158,48.2923,784.9355,38.2192,785.2738,28.1461,785.0601,18.0731,785,8" style="stroke: #A80036; stroke-width: 1.5;"/><polygon fill="#FF0000" points="841.9544,25.8364,841.3566,28.3687,840.4996,30.0629,839.3955,32.1321,836.5316,33.4145,834.0021,34.8665,830.5567,34.7028,827.0251,34.4764,824.3886,32.8949,822.3693,30.6058,821.9311,28.2924,821.4227,25.827,821.1912,22.6224,821.366,19.1121,822.7282,16.7119,826.0095,14.9275,827.6633,13.8936,830.3689,12.4458,833.12,12.7725,834.8552,13.9879,838.1711,14.8852,840.3583,17.8801,842.0302,19.4835,842.724,23.104,842.7285,26.7392" style="stroke: #A80036; stroke-width: 1.0;"/><path d="M832.5938,30.75 L830.1406,30.75 L830.1406,20.5 L827,20.5 L827,18.3594 L835.7344,18.3594 L835.7344,20.5 L832.5938,20.5 L832.5938,30.75 Z "/><text fill="#000000" font-family="sans-serif" font-size="12" lengthAdjust="spacingAndGlyphs" textLength="88" x="852.25" y="28.1543">event_to_user</text><path d="M786,40 L786,39.7748 L795.8947,39.6598 L805.7895,39.6496 L815.6842,40.4926 L825.5789,39.3834 L835.4737,40.8639 L845.3684,40.5963 L855.2632,40.8421 L865.1579,39.2889 L875.0526,39.7981 L884.9474,40.7837 L894.8421,40.2519 L904.7368,39.1724 L914.6316,39.9464 L924.5263,39.5147 L934.4211,39.9495 L944.3158,39.1163 L954.2105,40.5306 L964.1053,40.481 L974,40 " fill="#FEFECE" style="stroke: #A80036; stroke-width: 1.5;"/><text fill="#000000" font-family="sans-serif" font-size="11" lengthAdjust="spacingAndGlyphs" textLength="145" x="791" y="54.2104">Таблица, разрешающая</text><text fill="#000000" font-family="sans-serif" font-size="11" lengthAdjust="spacingAndGlyphs" textLength="137" x="791" y="67.0151">связь много-ко-многим</text><text fill="#000000" font-family="sans-serif" font-size="11" lengthAdjust="spacingAndGlyphs" textLength="174" x="791" y="79.8198">для события и пользователя</text><path d="M786,86.4141 L786,87.0668 L795.8947,85.8957 L805.7895,86.8906 L815.6842,87.3108 L825.5789,86.2006 L835.4737,87.0599 L845.3684,86.3831 L855.2632,86.6472 L865.1579,86.9454 L875.0526,85.8639 L884.9474,86.7533 L894.8421,86.5437 L904.7368,85.5527 L914.6316,86.9278 L924.5263,86.0516 L934.4211,86.2487 L944.3158,86.1822 L954.2105,86.7435 L964.1053,86.2035 L974,86.4141 " fill="#FEFECE" style="stroke: #A80036; stroke-width: 1.0;"/><text fill="#000000" font-family="sans-serif" font-size="11" lengthAdjust="spacingAndGlyphs" textLength="148" x="791" y="100.6245">CalendarUser (В событие</text><text fill="#000000" font-family="sans-serif" font-size="11" lengthAdjust="spacingAndGlyphs" textLength="150" x="791" y="113.4292">можно пригласить много</text><text fill="#000000" font-family="sans-serif" font-size="11" lengthAdjust="spacingAndGlyphs" textLength="94" x="791" y="126.2339">пользователей)</text><path d="M786,132.8281 L786,132.5756 L795.8947,132.6983 L805.7895,133.0513 L815.6842,132.5418 L825.5789,132.1139 L835.4737,132.6627 L845.3684,133.7313 L855.2632,132.0311 L865.1579,133.224 L875.0526,133.0967 L884.9474,133.1998 L894.8421,133.5522 L904.7368,133.3796 L914.6316,133.6672 L924.5263,133.3011 L934.4211,133.4176 L944.3158,131.8828 L954.2105,132.9618 L964.1053,132.1188 L974,132.8281 " fill="#FEFECE" style="stroke: #A80036; stroke-width: 1.0;"/><text fill="#000000" font-family="sans-serif" font-size="11" lengthAdjust="spacingAndGlyphs" textLength="174" x="791" y="147.0386">CalendarEvent (Пользователь</text><text fill="#000000" font-family="sans-serif" font-size="11" lengthAdjust="spacingAndGlyphs" textLength="143" x="791" y="159.8433">может быть приглашён</text><text fill="#000000" font-family="sans-serif" font-size="11" lengthAdjust="spacingAndGlyphs" textLength="111" x="791" y="172.6479">во много событий)</text><!--class CalendarUser--><polygon fill="#FEFECE" filter="url(#fshn6kd4axmb8)" points="36,37.5,36,36.889,45.9167,37.3913,55.8333,37.8291,65.75,38.2318,75.6667,37.5825,85.5833,38.2109,95.5,38.0469,105.4167,37.0506,115.3333,37.6382,125.25,38.0153,135.1667,37.1133,145.0833,36.9607,155,37.7565,164.9167,36.8031,174.8333,37.6598,184.75,37.5675,194.6667,37.0408,204.5833,36.9056,214.5,38.075,224.4167,37.6675,234.3333,37.8998,244.25,38.0725,254.1667,37.9987,264.0833,37.062,274,37.5,274.357,37.5,273.4175,47.6839,274.5462,57.8679,274.3213,68.0518,274.4398,78.2358,274.1955,88.4197,274.2456,98.6037,274.331,108.7876,273.6179,118.9716,273.5644,129.1555,273.6351,139.3395,274,149.5234,274,149.8845,264.0833,149.5377,254.1667,149.2604,244.25,149.6566,234.3333,149.1499,224.4167,148.84,214.5,148.7898,204.5833,149.6861,194.6667,149.8972,184.75,150.0007,174.8333,149.6429,164.9167,149.1089,155,148.9367,145.0833,148.9227,135.1667,149.2062,125.25,149.3012,115.3333,149.2613,105.4167,148.8971,95.5,148.9396,85.5833,149.68,75.6667,149.9329,65.75,149.5727,55.8333,149.5384,45.9167,150.1722,36,149.5234,35.7746,149.5234,35.6881,139.3395,36.1661,129.1555,36.4815,118.9716,35.7646,108.7876,35.3844,98.6037,35.789,88.4197,35.7579,78.2358,36.0727,68.0518,36.3011,57.8679,35.5316,47.6839,36,37.5" style="stroke: #A80036; stroke-width: 1.5;"/><polygon fill="#FFFFFF" points="119.4744,56.3999,117.5496,59.7919,115.5389,62.0103,112.7523,63.7887,110.5142,64.4639,108.1221,64.8305,105.2273,64.3103,102.0243,63.188,100.6026,61.5636,98.1994,58.5934,97.1225,55.365,96.8684,52.0047,97.8621,49.5887,99.5226,47.6422,101.6552,45.0001,104.485,42.9311,108.3202,43.0515,111.7825,42.7984,114.2712,45.0668,116.5089,46.6289,117.9972,48.8166,118.8316,51.249,119.5983,53.9261" style="stroke: #A80036; stroke-width: 1.0;"/><path d="M111.2188,59.1406 Q110.6406,59.4375 110,59.5859 Q109.3594,59.7344 108.6563,59.7344 Q106.1563,59.7344 104.8359,58.0859 Q103.5156,56.4375 103.5156,53.3125 Q103.5156,50.1875 104.8359,48.5313 Q106.1563,46.875 108.6563,46.875 Q109.3594,46.875 110.0078,47.0313 Q110.6563,47.1875 111.2188,47.4844 L111.2188,50.2031 Q110.5938,49.625 110,49.3516 Q109.4063,49.0781 108.7813,49.0781 Q107.4375,49.0781 106.75,50.1484 Q106.0625,51.2188 106.0625,53.3125 Q106.0625,55.4063 106.75,56.4766 Q107.4375,57.5469 108.7813,57.5469 Q109.4063,57.5469 110,57.2734 Q110.5938,57 111.2188,56.4219 L111.2188,59.1406 Z "/><text fill="#000000" font-family="sans-serif" font-size="12" lengthAdjust="spacingAndGlyphs" textLength="85" x="128.75" y="57.6543">CalendarUser</text><path d="M37,69.5 L37,68.9142 L46.8333,69.6521 L56.6667,69.7849 L66.5,69.3043 L76.3333,69.2133 L86.1667,69.2 L96,69.54 L105.8333,70.4565 L115.6667,69.832 L125.5,68.8557 L135.3333,69.0727 L145.1667,69.0628 L155,68.6359 L164.8333,68.7838 L174.6667,69.0614 L184.5,70.1566 L194.3333,69.9196 L204.1667,68.7331 L214,69.3712 L223.8333,69.0837 L233.6667,68.5038 L243.5,69.1143 L253.3333,69.496 L263.1667,70.3871 L273,69.5 " fill="#FEFECE" style="stroke: #A80036; stroke-width: 1.5;"/><text fill="#000000" font-family="sans-serif" font-size="11" lengthAdjust="spacingAndGlyphs" textLength="84" x="42" y="83.7104">Пользователь</text><path d="M37,90.3047 L37,89.4531 L46.8333,90.0875 L56.6667,89.9169 L66.5,90.7431 L76.3333,91.0119 L86.1667,90.9757 L96,90.0695 L105.8333,89.508 L115.6667,91.174 L125.5,89.8158 L135.3333,90.6476 L145.1667,89.8948 L155,89.9988 L164.8333,90.7191 L174.6667,89.8842 L184.5,90.6326 L194.3333,89.7412 L204.1667,90.3481 L214,90.6284 L223.8333,89.5617 L233.6667,89.6991 L243.5,90.8198 L253.3333,90.0893 L263.1667,89.5914 L273,90.3047 " fill="#FEFECE" style="stroke: #A80036; stroke-width: 1.0;"/><text fill="#000000" font-family="sans-serif" font-size="11" lengthAdjust="spacingAndGlyphs" textLength="32" x="42" y="104.5151">name</text><text fill="#000000" font-family="sans-serif" font-size="11" lengthAdjust="spacingAndGlyphs" textLength="15" x="170" y="104.5151">[1]</text><text fill="#000000" font-family="sans-serif" font-size="11" lengthAdjust="spacingAndGlyphs" textLength="34" x="234" y="104.5151">String</text><text fill="#000000" font-family="sans-serif" font-size="11" lengthAdjust="spacingAndGlyphs" textLength="24" x="42" y="117.3198">mail</text><text fill="#000000" font-family="sans-serif" font-size="11" lengthAdjust="spacingAndGlyphs" textLength="30" x="138" y="117.3198">[0..1]</text><text fill="#000000" font-family="sans-serif" font-size="11" lengthAdjust="spacingAndGlyphs" textLength="34" x="170" y="117.3198">String</text><text fill="#000000" font-family="sans-serif" font-size="11" lengthAdjust="spacingAndGlyphs" textLength="52" x="42" y="130.1245">birthDate</text><text fill="#000000" font-family="sans-serif" font-size="11" lengthAdjust="spacingAndGlyphs" textLength="15" x="138" y="130.1245">[1]</text><text fill="#000000" font-family="sans-serif" font-size="11" lengthAdjust="spacingAndGlyphs" textLength="26" x="202" y="130.1245">Date</text><text fill="#000000" font-family="sans-serif" font-size="11" lengthAdjust="spacingAndGlyphs" textLength="0" x="46" y="142.9292"/><!--class Comment--><polygon fill="#FEFECE" filter="url(#fshn6kd4axmb8)" points="478,582,478,581.7603,487.9231,582.012,497.8462,582.2499,507.7692,581.3146,517.6923,582.6943,527.6154,581.5429,537.5385,582.5839,547.4615,582.6162,557.3846,582.3526,567.3077,582.1337,577.2308,582.2211,587.1538,582.3316,597.0769,581.3057,607,582.1734,616.9231,582.6579,626.8462,581.724,636.7692,581.7074,646.6923,581.3523,656.6154,582.6344,666.5385,582.4624,676.4615,582.4063,686.3846,581.3949,696.3077,581.6175,706.2308,581.6259,716.1538,582.2322,726.0769,582.5001,736,582,735.5961,582,736.5701,591.9219,735.963,601.8438,736.3298,611.7656,736.7302,621.6875,736.6476,631.6094,736.3552,641.5313,735.2715,651.4531,736.1917,661.375,736.6345,671.2969,736,681.2188,736,681.6699,726.0769,681.3752,716.1538,681.2433,706.2308,681.1157,696.3077,680.8799,686.3846,681.3745,676.4615,681.2731,666.5385,681.568,656.6154,681.5725,646.6923,680.9095,636.7692,680.4931,626.8462,680.8151,616.9231,680.5972,607,681.6068,597.0769,681.9595,587.1538,681.0415,577.2308,680.8066,567.3077,680.6008,557.3846,680.5373,547.4615,681.7099,537.5385,680.7423,527.6154,680.8365,517.6923,681.8448,507.7692,681.4555,497.8462,680.6947,487.9231,681.453,478,681.2188,478.2422,681.2188,477.5027,671.2969,477.6361,661.375,477.6162,651.4531,478.6575,641.5313,477.4409,631.6094,477.5076,621.6875,477.286,611.7656,478.0669,601.8438,477.9155,591.9219,478,582" style="stroke: #A80036; stroke-width: 1.5;"/><polygon fill="#FFFFFF" points="584.0898,600.0297,583.1613,603.5901,581.0582,605.204,578.8255,607.4666,577.0309,608.4953,574.3671,608.9166,572.027,609.56,570.3836,607.9387,568.43,607.4505,564.8018,605.9432,563.7104,602.9457,562.7217,599.7796,561.9386,597.4842,562.9296,594.1467,564.7315,591.2975,566.2041,589.4429,568.1541,587.8928,570.8992,586.8192,573.4188,586.7222,576.4265,587.1082,579.5781,589.0924,580.9963,590.9284,582.573,593.0505,583.549,595.7328,584.1914,597.5941,584.4923,599.8286" style="stroke: #A80036; stroke-width: 1.0;"/><path d="M576.2188,603.6406 Q575.6406,603.9375 575,604.0859 Q574.3594,604.2344 573.6563,604.2344 Q571.1563,604.2344 569.8359,602.5859 Q568.5156,600.9375 568.5156,597.8125 Q568.5156,594.6875 569.8359,593.0313 Q571.1563,591.375 573.6563,591.375 Q574.3594,591.375 575.0078,591.5313 Q575.6563,591.6875 576.2188,591.9844 L576.2188,594.7031 Q575.5938,594.125 575,593.8516 Q574.4063,593.5781 573.7813,593.5781 Q572.4375,593.5781 571.75,594.6484 Q571.0625,595.7188 571.0625,597.8125 Q571.0625,599.9063 571.75,600.9766 Q572.4375,602.0469 573.7813,602.0469 Q574.4063,602.0469 575,601.7734 Q575.5938,601.5 576.2188,600.9219 L576.2188,603.6406 Z "/><text fill="#000000" font-family="sans-serif" font-size="12" lengthAdjust="spacingAndGlyphs" textLength="59" x="593.75" y="602.1543">Comment</text><path d="M479,614 L479,613.543 L488.8462,613.0983 L498.6923,614.0213 L508.5385,613.8142 L518.3846,613.5539 L528.2308,614.409 L538.0769,613.2549 L547.9231,613.8704 L557.7692,614.8258 L567.6154,614.5766 L577.4615,614.7638 L587.3077,613.7737 L597.1538,613.8089 L607,613.1333 L616.8462,613.614 L626.6923,613.1003 L636.5385,614.3327 L646.3846,614.9042 L656.2308,614.3528 L666.0769,614.6842 L675.9231,614.6744 L685.7692,613.7508 L695.6154,614.5841 L705.4615,613.149 L715.3077,614.1674 L725.1538,613.4147 L735,614 " fill="#FEFECE" style="stroke: #A80036; stroke-width: 1.5;"/><text fill="#000000" font-family="sans-serif" font-size="11" lengthAdjust="spacingAndGlyphs" textLength="80" x="484" y="628.2104">Комментарий</text><path d="M479,634.8047 L479,635.7076 L488.8462,635.542 L498.6923,634.6998 L508.5385,634.9243 L518.3846,634.0369 L528.2308,634.7946 L538.0769,634.0531 L547.9231,634.7963 L557.7692,633.862 L567.6154,635.0092 L577.4615,634.0999 L587.3077,635.0062 L597.1538,634.2501 L607,635.2139 L616.8462,633.822 L626.6923,634.8145 L636.5385,634.8623 L646.3846,634.6432 L656.2308,634.3198 L666.0769,635.4199 L675.9231,635.4351 L685.7692,634.3864 L695.6154,635.0686 L705.4615,635.6627 L715.3077,634.4066 L725.1538,635.0038 L735,634.8047 " fill="#FEFECE" style="stroke: #A80036; stroke-width: 1.0;"/><text fill="#000000" font-family="sans-serif" font-size="11" lengthAdjust="spacingAndGlyphs" textLength="57" x="484" y="649.0151">createdBy</text><text fill="#000000" font-family="sans-serif" font-size="11" lengthAdjust="spacingAndGlyphs" textLength="15" x="580" y="649.0151">[1]</text><text fill="#000000" font-family="sans-serif" font-size="11" lengthAdjust="spacingAndGlyphs" textLength="78" x="644" y="649.0151">CalendarUser</text><text fill="#000000" font-family="sans-serif" font-size="11" lengthAdjust="spacingAndGlyphs" textLength="43" x="484" y="661.8198">created</text><text fill="#000000" font-family="sans-serif" font-size="11" lengthAdjust="spacingAndGlyphs" textLength="15" x="612" y="661.8198">[1]</text><text fill="#000000" font-family="sans-serif" font-size="11" lengthAdjust="spacingAndGlyphs" textLength="54" x="676" y="661.8198">DateTime</text><text fill="#000000" font-family="sans-serif" font-size="11" lengthAdjust="spacingAndGlyphs" textLength="30" x="484" y="674.6245">value</text><text fill="#000000" font-family="sans-serif" font-size="11" lengthAdjust="spacingAndGlyphs" textLength="15" x="580" y="674.6245">[1]</text><text fill="#000000" font-family="sans-serif" font-size="11" lengthAdjust="spacingAndGlyphs" textLength="34" x="644" y="674.6245">String</text><!--class event_to_tag--><polygon fill="#FEFECE" filter="url(#fshn6kd4axmb8)" points="6,295,6,295.3178,16.2222,294.568,26.4444,295.5223,36.6667,294.745,46.8889,294.297,57.1111,294.4179,67.3333,294.5186,77.5556,294.9675,87.7778,295.7132,98,295.0655,108.2222,295.7048,118.4444,294.3861,128.6667,294.483,138.8889,294.8647,149.1111,294.624,159.3333,295.5471,169.5556,294.6854,179.7778,294.2542,190,295,189.9604,295,190.4491,305.0731,190.6455,315.1461,189.7967,325.2192,189.3445,335.2923,189.6312,345.3653,190.1844,355.4384,190.442,365.5115,189.3509,375.5846,190.5536,385.6576,189.8059,395.7307,190.0411,405.8038,190.7157,415.8768,189.4175,425.9499,189.9037,436.023,189.46,446.096,190.0284,456.1691,190,466.2422,190,466.6084,179.7778,466.5832,169.5556,466.2773,159.3333,466.328,149.1111,465.8741,138.8889,465.7192,128.6667,465.8333,118.4444,466.9733,108.2222,465.889,98,466.1283,87.7778,466.5345,77.5556,466.5804,67.3333,465.6572,57.1111,466.8897,46.8889,465.9743,36.6667,466.3874,26.4444,465.7916,16.2222,465.9013,6,466.2422,5.8729,466.2422,5.383,456.1691,5.815,446.096,5.4656,436.023,6.7378,425.9499,6.0946,415.8768,5.7841,405.8038,5.5778,395.7307,6.6195,385.6576,6.1917,375.5846,5.7998,365.5115,6.1979,355.4384,5.5187,345.3653,6.6464,335.2923,5.8664,325.2192,6.162,315.1461,5.5414,305.0731,6,295" style="stroke: #A80036; stroke-width: 1.5;"/><polygon fill="#FF0000" points="64.5576,313.6419,63.0233,315.8652,61.9155,318.0566,60.1199,319.7567,58.2411,320.6244,55.072,321.9464,51.4101,322.0935,48.1726,320.4076,46.459,318.8201,43.9703,317.965,43.6681,315.386,42.6966,313.4257,42.4557,309.9938,42.7997,306.6517,44.0199,304.3989,45.3145,302.5844,48.2515,301.6706,51.3199,300.3306,54.8269,300.3061,58.3529,300.6827,59.7808,302.5973,62.0372,304.412,64.0374,307.4004,63.9705,311.2484" style="stroke: #A80036; stroke-width: 1.0;"/><path d="M54.0938,317.75 L51.6406,317.75 L51.6406,307.5 L48.5,307.5 L48.5,305.3594 L57.2344,305.3594 L57.2344,307.5 L54.0938,307.5 L54.0938,317.75 Z "/><text fill="#000000" font-family="sans-serif" font-size="12" lengthAdjust="spacingAndGlyphs" textLength="81" x="73.75" y="315.1543">event_to_tag</text><path d="M7,327 L7,327.4083 L17.1111,327.1625 L27.2222,327.208 L37.3333,326.3056 L47.4444,326.7481 L57.5556,327.1059 L67.6667,327.3705 L77.7778,327.6617 L87.8889,327.9951 L98,327.9803 L108.1111,327.7704 L118.2222,327.9798 L128.3333,327.2557 L138.4444,327.1557 L148.5556,327.973 L158.6667,327.1433 L168.7778,326.2313 L178.8889,326.0818 L189,327 " fill="#FEFECE" style="stroke: #A80036; stroke-width: 1.5;"/><text fill="#000000" font-family="sans-serif" font-size="11" lengthAdjust="spacingAndGlyphs" textLength="145" x="12" y="341.2104">Таблица, разрешающая</text><text fill="#000000" font-family="sans-serif" font-size="11" lengthAdjust="spacingAndGlyphs" textLength="137" x="12" y="354.0151">связь много-ко-многим</text><text fill="#000000" font-family="sans-serif" font-size="11" lengthAdjust="spacingAndGlyphs" textLength="118" x="12" y="366.8198">для события и тега</text><path d="M7,373.4141 L7,372.561 L17.1111,372.914 L27.2222,373.6858 L37.3333,373.7671 L47.4444,373.8351 L57.5556,372.6476 L67.6667,373.0438 L77.7778,373.4526 L87.8889,373.2309 L98,373.7545 L108.1111,372.5113 L118.2222,372.599 L128.3333,374.2723 L138.4444,372.7313 L148.5556,372.4468 L158.6667,373.5654 L168.7778,372.9204 L178.8889,373.2913 L189,373.4141 " fill="#FEFECE" style="stroke: #A80036; stroke-width: 1.0;"/><text fill="#000000" font-family="sans-serif" font-size="11" lengthAdjust="spacingAndGlyphs" textLength="112" x="12" y="387.6245">EventTag (Событие</text><text fill="#000000" font-family="sans-serif" font-size="11" lengthAdjust="spacingAndGlyphs" textLength="158" x="12" y="400.4292">можно пометить большим</text><text fill="#000000" font-family="sans-serif" font-size="11" lengthAdjust="spacingAndGlyphs" textLength="119" x="12" y="413.2339">количеством тегов)</text><path d="M7,419.8281 L7,419.3775 L17.1111,419.4458 L27.2222,419.377 L37.3333,419.5018 L47.4444,419.1663 L57.5556,420.5629 L67.6667,419.8222 L77.7778,418.923 L87.8889,419.0638 L98,419.7695 L108.1111,419.2051 L118.2222,419.5555 L128.3333,420.0534 L138.4444,419.3013 L148.5556,420.0066 L158.6667,419.8796 L168.7778,418.9007 L178.8889,420.3542 L189,419.8281 " fill="#FEFECE" style="stroke: #A80036; stroke-width: 1.0;"/><text fill="#000000" font-family="sans-serif" font-size="11" lengthAdjust="spacingAndGlyphs" textLength="168" x="12" y="434.0386">CalendarEvent (Одним тегом</text><text fill="#000000" font-family="sans-serif" font-size="11" lengthAdjust="spacingAndGlyphs" textLength="134" x="12" y="446.8433">может быть помечено</text><text fill="#000000" font-family="sans-serif" font-size="11" lengthAdjust="spacingAndGlyphs" textLength="111" x="12" y="459.6479">во много событий)</text><!--link CalendarUser to Calendar--><path d="M274.053,93.5 L274.053,94.2933 L284.0425,92.834 L294.0321,92.7462 L304.0216,93.9035 L314.0111,94.1506 L324.0006,93.0304 L333.9902,93.667 L343.9797,93.2955 L353.9692,93.699 L363.9587,92.781 L373.9483,93.6506 L383.9378,93.0797 L393.9273,93.0133 L403.9168,93.3097 L413.9064,93.1761 L423.8959,93.7211 L433.8854,92.7611 L443.8749,93.1826 L453.8645,93.311 L463.854,93.5 " fill="none" style="stroke: #A80036; stroke-width: 1.0;"/><text fill="#000000" font-family="sans-serif" font-size="13" lengthAdjust="spacingAndGlyphs" textLength="136" x="292.5" y="56.5669">Один пользователь</text><text fill="#000000" font-family="sans-serif" font-size="13" lengthAdjust="spacingAndGlyphs" textLength="123" x="299" y="71.6997">может создавать</text><text fill="#000000" font-family="sans-serif" font-size="13" lengthAdjust="spacingAndGlyphs" textLength="77" x="324" y="86.8325">множество</text><polygon fill="#000000" points="435.5,65.6992,435.6089,65.917,436.6653,66.2299,437.8976,66.8943,439.0737,67.4466,440.3718,68.2429,441.5,68.6992,441.4049,68.5091,440.2385,69.1762,439.0571,69.8133,437.9746,70.6484,436.6401,70.9794,435.5,71.6992,435.6818,71.6992,435.319,70.4992,435.6798,69.2992,435.2979,68.0992,435.3779,66.8992,435.5,65.6992" style="stroke: #000000; stroke-width: 1.0;"/><text fill="#000000" font-family="sans-serif" font-size="13" lengthAdjust="spacingAndGlyphs" textLength="8" x="281.9361" y="90.0899">1</text><text fill="#000000" font-family="sans-serif" font-size="13" lengthAdjust="spacingAndGlyphs" textLength="7" x="448.8343" y="90.149">*</text><!--link Calendar to CalendarEvent--><path d="M607,136.553 L607.6976,136.553 L607.8872,146.5138 L606.4933,156.4746 L606.0504,166.4354 L606.2327,176.3962 L607.8172,186.357 L607.9281,196.3178 L606.9739,206.2786 L606.8616,216.2394 L607.9464,226.2002 L606.0377,236.161 L607.7761,246.1218 L607.7875,256.0826 L607.135,266.0434 L607.0763,276.0042 L607,285.965 " fill="none" style="stroke: #A80036; stroke-width: 1.0;"/><text fill="#000000" font-family="sans-serif" font-size="13" lengthAdjust="spacingAndGlyphs" textLength="134" x="612.5" y="222.0669">В одном календаре</text><text fill="#000000" font-family="sans-serif" font-size="13" lengthAdjust="spacingAndGlyphs" textLength="143" x="608" y="237.1997">может содержаться</text><text fill="#000000" font-family="sans-serif" font-size="13" lengthAdjust="spacingAndGlyphs" textLength="71" x="646" y="252.3325">несколько</text><polygon fill="#000000" points="677,261.3984,677.1983,261.4976,677.731,262.6639,678.1179,263.7574,678.7212,264.959,679.4825,266.2397,680,267.3984,679.9414,267.3691,680.4606,266.1287,681.2845,265.0407,681.7571,263.777,682.6139,262.7054,683,261.3984,683,261.1766,681.8,261.4107,680.6,261.6294,679.4,261.2042,678.2,261.3412,677,261.3984" style="stroke: #000000; stroke-width: 1.0;"/><text fill="#000000" font-family="sans-serif" font-size="13" lengthAdjust="spacingAndGlyphs" textLength="8" x="598.3375" y="156.9694">1</text><text fill="#000000" font-family="sans-serif" font-size="13" lengthAdjust="spacingAndGlyphs" textLength="7" x="599.7211" y="274.9122">*</text><!--link CalendarEvent to Comment--><path d="M607,475.281 L607.8348,475.281 L607.8387,484.9645 L606.9065,494.6479 L606.8973,504.3314 L606.476,514.0149 L607.7862,523.6983 L606.7228,533.3818 L606.7497,543.0652 L606.3171,552.7487 L606.3089,562.4322 L607.6253,572.1156 L607,581.7991 " fill="none" style="stroke: #A80036; stroke-width: 1.0;"/><text fill="#000000" font-family="sans-serif" font-size="13" lengthAdjust="spacingAndGlyphs" textLength="98" x="623" y="518.0669">Одно событие</text><text fill="#000000" font-family="sans-serif" font-size="13" lengthAdjust="spacingAndGlyphs" textLength="128" x="608" y="533.1997">может содержать</text><text fill="#000000" font-family="sans-serif" font-size="13" lengthAdjust="spacingAndGlyphs" textLength="40" x="654" y="548.3325">много</text><polygon fill="#000000" points="669.5,557.3984,669.484,557.3904,670.1405,558.6187,670.8625,559.8797,671.5168,561.1068,671.9175,562.2072,672.5,563.3984,672.286,563.2914,673.0549,562.1759,673.5898,560.9433,674.3752,559.836,674.7608,558.5288,675.5,557.3984,675.5,557.1733,674.3,557.3729,673.1,557.3373,671.9,557.3776,670.7,557.5648,669.5,557.3984" style="stroke: #000000; stroke-width: 1.0;"/><text fill="#000000" font-family="sans-serif" font-size="13" lengthAdjust="spacingAndGlyphs" textLength="8" x="598.7063" y="494.8695">1</text><text fill="#000000" font-family="sans-serif" font-size="13" lengthAdjust="spacingAndGlyphs" textLength="7" x="599.5078" y="570.816">*</text><!--link CalendarEvent to CalendarEvent--><path d="M748.204,355.393 L748.2472,355.555 L751.0379,356.1278 L753.9141,357.0209 L756.7169,357.639 L759.5853,358.503 L762.4045,359.1824 L762.4755,359.3256 L764.6343,360.337 L766.7655,361.2931 L769.0336,362.5249 L771.1883,363.5282 L773.3919,364.63 L773.3822,364.6241 L775.3861,367.848 L777.4952,371.1355 L779.4379,374.3222 L780.9756,377.2638 L783,380.5 L782.8776,380.4259 L781.3127,383.8159 L779.2246,386.8891 L777.0545,389.9126 L775.5888,393.3627 L773.3919,396.37 L773.3521,396.2897 L771.2039,397.4788 L769.0201,398.5958 L766.6895,399.4168 L764.6799,400.8852 L762.4045,401.8176 L762.3298,401.5379 L759.5659,402.5811 L756.7283,403.3483 L753.945,404.319 L751.092,405.0288 L748.204,405.607 " fill="none" style="stroke: #A80036; stroke-width: 1.0;"/><text fill="#000000" font-family="sans-serif" font-size="13" lengthAdjust="spacingAndGlyphs" textLength="110" x="792.5" y="370.0669">Событие может</text><text fill="#000000" font-family="sans-serif" font-size="13" lengthAdjust="spacingAndGlyphs" textLength="117" x="789" y="385.1997">быть порождено</text><text fill="#000000" font-family="sans-serif" font-size="13" lengthAdjust="spacingAndGlyphs" textLength="120" x="789.5" y="400.3325">другим событием</text><polygon fill="#000000" points="918,379.1992,918.0816,379.3625,919.1035,379.6063,920.4587,380.5166,921.5452,380.8896,922.9035,381.8061,924,382.1992,923.9639,382.1271,922.8449,382.8891,921.6165,383.4322,920.3249,383.8491,919.1902,384.5796,918,385.1992,918.1833,385.1992,918.0495,383.9992,918.0552,382.7992,917.8264,381.5992,918.1364,380.3992,918,379.1992" style="stroke: #000000; stroke-width: 1.0;"/><text fill="#000000" font-family="sans-serif" font-size="13" lengthAdjust="spacingAndGlyphs" textLength="8" x="756.1448" y="350.6844">1</text><text fill="#000000" font-family="sans-serif" font-size="13" lengthAdjust="spacingAndGlyphs" textLength="7" x="756.1175" y="403.6445">*</text><!--link event_to_tag to CalendarEvent--><path d="M150.25,294.852 L150.3094,294.9014 L151.6002,292.8446 L153.0862,290.9501 L154.82,289.2618 L156.4023,287.4475 L157.9468,285.6017 L157.9141,285.5722 L159.7607,283.9514 L161.0924,281.8663 L162.7742,280.0968 L164.5637,278.4245 L166.1173,276.5395 L166.1046,276.5271 L167.758,274.7028 L169.7412,273.2035 L171.2343,271.2213 L173.1626,269.6679 L174.7509,267.7795 L174.9139,267.957 L176.545,266.0854 L178.5513,264.6225 L180.4241,263.0142 L182.0459,261.1325 L183.8373,259.4355 L183.7604,259.3417 L185.9061,258.0717 L187.4841,256.1093 L189.5007,254.6817 L191.5929,253.3464 L193.3658,251.6216 L193.2416,251.4491 L195.2168,249.9917 L197.2914,248.6724 L199.4048,247.4069 L201.4399,246.0327 L203.3261,244.4517 L203.3826,244.5432 L205.5704,243.4414 L207.5533,242.0077 L209.4213,240.3881 L211.4914,239.0956 L213.7077,238.0399 L213.7836,238.1879 L215.7915,236.7865 L218.0002,235.7763 L220.0688,234.4933 L222.4393,233.7985 L224.5,232.5 L224.4953,232.4894 L227.6271,231.4237 L230.4482,229.6549 L233.5853,228.6014 L236.5819,227.2296 L239.5714,225.842 L239.6491,226.0369 L242.3383,224.5708 L245.2792,223.7364 L248.1566,222.7424 L250.7659,221.0756 L253.6966,220.2157 L253.6406,220.0544 L256.3058,219.1333 L258.9234,218.0751 L261.5882,217.153 L264.3968,216.6448 L267.0156,215.5901 L266.9284,215.2881 L269.5341,214.8171 L272.0714,214.1092 L274.5196,213.0929 L277.1371,212.6628 L279.6684,211.9344 L279.6762,211.9691 L282.1619,211.6955 L284.5136,210.8232 L286.9959,210.5344 L289.3085,209.4879 L291.795,209.2179 L291.815,209.3472 L294.1048,208.6072 L296.4601,208.2928 L298.8794,208.3933 L301.1796,207.7205 L303.5355,207.4097 L303.5181,207.1956 L305.832,207.195 L308.1476,207.2156 L310.4408,206.9603 L312.7452,206.8423 L315.0297,206.4789 L315.0308,206.6277 L317.3079,206.54 L319.5828,206.1599 L321.864,206.6288 L324.1397,206.3468 L326.4178,206.3948 L326.4356,206.6731 L328.7085,206.6403 L330.9836,206.6417 L333.2678,206.7853 L335.5703,207.2146 L337.8396,207.1264 L337.8637,207.3108 L340.1283,207.1968 L342.482,207.7641 L344.8384,208.3529 L347.1089,208.2842 L349.4353,208.643 L349.427,208.5992 L351.7952,208.9815 L354.2223,209.6727 L356.5344,209.7606 L358.9732,210.5135 L361.3448,210.9137 L361.3196,210.8096 L363.7859,211.3822 L366.3629,212.4116 L368.7894,212.8199 L371.2469,213.3557 L373.7082,213.9077 L373.7309,213.9877 L376.2895,214.6095 L378.9391,215.551 L381.5287,216.282 L384.1244,217.0342 L386.6654,217.5942 L386.5894,217.355 L389.3659,218.3451 L392.2193,219.5773 L394.8725,220.1795 L397.6142,221.0602 L400.3564,221.9423 L400.2882,221.7426 L403.3568,223.1938 L406.1685,223.8932 L408.9901,224.6219 L411.9137,225.6485 L414.9213,226.9211 L414.9891,227.1105 L418.0475,228.0661 L421.168,229.1952 L424.373,230.5603 L427.3107,231.1787 L430.5,232.5 L430.5822,232.706 L432.7604,233.1826 L435.1733,234.2473 L437.604,235.3567 L439.8921,236.1087 L442.3224,237.217 L442.4433,237.4758 L444.5412,238.0729 L446.9372,239.3082 L449.4286,240.7478 L451.558,241.4124 L453.9551,242.6502 L453.8313,242.4173 L456.3417,244.0585 L458.3867,244.8242 L460.7955,246.2743 L463.0059,247.3511 L465.3711,248.7192 L465.2897,248.5818 L467.7633,250.3101 L469.8099,251.3183 L472.0519,252.6559 L474.4451,254.2485 L476.5432,255.3435 L476.7071,255.5951 L478.6164,256.5989 L480.848,258.0976 L483.1104,259.6435 L485.1094,260.7851 L487.4443,262.4425 L487.3411,262.2964 L489.4647,263.7993 L491.732,265.5057 L493.7351,266.8381 L495.7954,268.2513 L498.0473,269.9358 L497.9882,269.858 L499.9564,271.3045 L502.0562,272.9241 L504.0363,274.3863 L506.3492,276.2865 L508.3249,277.7428 L508.2813,277.689 L510.1544,279.1589 L512.2476,280.9004 L514.2105,282.4812 L516.4315,284.3805 L518.25,285.783 " fill="none" style="stroke: #A80036; stroke-width: 1.0;"/><text fill="#000000" font-family="sans-serif" font-size="13" lengthAdjust="spacingAndGlyphs" textLength="7" x="147.4395" y="283.9093">*</text><text fill="#000000" font-family="sans-serif" font-size="13" lengthAdjust="spacingAndGlyphs" textLength="8" x="503.1488" y="275.0347">1</text><!--link event_to_tag to EventTag--><path d="M190.09,380.5 L190.09,380.5423 L197.0394,380.4401 L203.9888,380.2591 L210.9382,380.3702 L217.8876,380.2955 L224.837,380.5 " fill="none" style="stroke: #A80036; stroke-width: 1.0;"/><text fill="#000000" font-family="sans-serif" font-size="13" lengthAdjust="spacingAndGlyphs" textLength="7" x="198.006" y="376.9413">*</text><text fill="#000000" font-family="sans-serif" font-size="13" lengthAdjust="spacingAndGlyphs" textLength="8" x="208.9672" y="377.0353">1</text><!--
@startuml

skinparam stereotypeCBorderColor Black
skinparam stereotypeCBackgroundColor White
skinparam stereotypeEBackgroundColor White
skinparam handwritten true


class Calendar {
	Календарь
	- -
	owner			[1]		CalendarUser
	events			[*]		CalendarEvent
}

class CalendarEvent {
	Событие календаря
	- -
	created			[1]		DateTime
	dateTimeBegin	[1]		DateTime
	dateTimeEnd		[1]		DateTime
	parent			[0..1]	CalendarEvent
	name			[1]		String
	description		[0..1]	String
	participants	[*]		CalendarUser
	watchers		[*]		CalendarUser
	attachments		[*]		FileDescriptor
	tag				[0..1]	EventTag
}

class EventTag {
	value			[1]		String
	color			[1]		String
}

class event_to_user << (T, red) >> {
	Таблица, разрешающая \nсвязь много-ко-многим \nдля события и пользователя
	- -
	CalendarUser (В событие \nможно пригласить много \nпользователей)
	- -
	CalendarEvent (Пользователь \nможет быть приглашён \nво много событий)
}

class CalendarUser {
	Пользователь
	- -
	name			[1]		String
	mail			[0..1]	String
	birthDate		[1]		Date
	
}

class Comment {
	Комментарий
	- -
	createdBy		[1]		CalendarUser
	created			[1]		DateTime
	value			[1]		String
}

class event_to_tag << (T, red) >> {
	Таблица, разрешающая \nсвязь много-ко-многим \nдля события и тега
	- -
	EventTag (Событие \nможно пометить большим \nколичеством тегов)
	- -
	CalendarEvent (Одним тегом \nможет быть помечено \nво много событий)
}


CalendarUser "1" -right- "*" Calendar : Один пользователь \nможет создавать \nмножество >
Calendar "1" - - "*" CalendarEvent : В одном календаре \nможет содержаться \nнесколько >
CalendarEvent "1" - - "*" Comment : Одно событие \nможет содержать \nмного >
CalendarEvent "1" - - "*" CalendarEvent : < Событие может \nбыть порождено \nдругим событием
CalendarEvent "1" -left- "*" event_to_tag
EventTag "1" -left- "*" event_to_tag
@enduml

PlantUML version 1.2018.01(Sun Jan 28 21:08:22 MSK 2018)
(GPL source distribution)
Java Runtime: OpenJDK Runtime Environment
JVM: OpenJDK Server VM
Java Version: 1.8.0_181-8u181-b13-0ubuntu0.16.04.1-b13
Operating System: Linux
OS Version: 4.15.0-36-generic
Default Encoding: UTF-8
Language: en
Country: US
--></g></svg>